<?xml version="1.0" encoding="UTF-8" standalone="no"?>
<!DOCTYPE svg PUBLIC "-//W3C//DTD SVG 1.1//EN"
 "http://www.w3.org/Graphics/SVG/1.1/DTD/svg11.dtd">
<!-- Generated by graphviz version 2.38.0 (20140413.2041)
 -->
<!-- Title: G Pages: 1 -->
<svg width="198pt" height="366pt"
 viewBox="0.00 0.00 198.00 366.00" xmlns="http://www.w3.org/2000/svg" xmlns:xlink="http://www.w3.org/1999/xlink">
<g id="graph0" class="graph" transform="scale(1 1) rotate(0) translate(4 362)">
<title>G</title>
<polygon fill="white" stroke="none" points="-4,4 -4,-362 194,-362 194,4 -4,4"/>
<g id="clust1" class="cluster"><title>cluster_Global</title>
<path fill="none" stroke="gray" d="M20,-8C20,-8 170,-8 170,-8 176,-8 182,-14 182,-20 182,-20 182,-338 182,-338 182,-344 176,-350 170,-350 170,-350 20,-350 20,-350 14,-350 8,-344 8,-338 8,-338 8,-20 8,-20 8,-14 14,-8 20,-8"/>
<text text-anchor="middle" x="95" y="-337.2" font-family="Times New Roman,serif" font-size="11.00" fill="gray">Global</text>
</g>
<!-- \\validacionFormularios -->
<g id="node1" class="node"><title>\\validacionFormularios</title>
<polygon fill="none" stroke="black" points="174,-322 16,-322 16,-286 174,-286 174,-322"/>
<text text-anchor="middle" x="95" y="-301.2" font-family="Courier,monospace" font-size="11.00">validacionFormularios</text>
</g>
<!-- \\BDPDO -->
<g id="node2" class="node"><title>\\BDPDO</title>
<polygon fill="none" stroke="black" points="122,-268 68,-268 68,-232 122,-232 122,-268"/>
<text text-anchor="middle" x="95" y="-247.2" font-family="Courier,monospace" font-size="11.00">BDPDO</text>
</g>
<!-- \\Departamento -->
<g id="node3" class="node"><title>\\Departamento</title>
<polygon fill="none" stroke="black" points="144,-214 46,-214 46,-178 144,-178 144,-214"/>
<text text-anchor="middle" x="95" y="-193.2" font-family="Courier,monospace" font-size="11.00">Departamento</text>
</g>
<!-- \\DepartamentoPDO -->
<g id="node4" class="node"><title>\\DepartamentoPDO</title>
<polygon fill="none" stroke="black" points="154,-160 36,-160 36,-124 154,-124 154,-160"/>
<text text-anchor="middle" x="95" y="-139.2" font-family="Courier,monospace" font-size="11.00">DepartamentoPDO</text>
</g>
<!-- \\Usuario -->
<g id="node5" class="node"><title>\\Usuario</title>
<polygon fill="none" stroke="black" points="127,-106 63,-106 63,-70 127,-70 127,-106"/>
<text text-anchor="middle" x="95" y="-85.2" font-family="Courier,monospace" font-size="11.00">Usuario</text>
</g>
<!-- \\UsuarioPDO -->
<g id="node6" class="node"><title>\\UsuarioPDO</title>
<polygon fill="none" stroke="black" points="137,-52 53,-52 53,-16 137,-16 137,-52"/>
<text text-anchor="middle" x="95" y="-31.2" font-family="Courier,monospace" font-size="11.00">UsuarioPDO</text>
</g>
</g>
</svg>
