<?xml version="1.0" encoding="UTF-8" standalone="no"?>
<!DOCTYPE svg PUBLIC "-//W3C//DTD SVG 1.1//EN"
 "http://www.w3.org/Graphics/SVG/1.1/DTD/svg11.dtd">
<!-- Generated by graphviz version 2.38.0 (20140413.2041)
 -->
<!-- Title: G Pages: 1 -->
<svg width="198pt" height="474pt"
 viewBox="0.00 0.00 198.00 474.00" xmlns="http://www.w3.org/2000/svg" xmlns:xlink="http://www.w3.org/1999/xlink">
<g id="graph0" class="graph" transform="scale(1 1) rotate(0) translate(4 470)">
<title>G</title>
<polygon fill="white" stroke="none" points="-4,4 -4,-470 194,-470 194,4 -4,4"/>
<g id="clust1" class="cluster"><title>cluster_Global</title>
<path fill="none" stroke="gray" d="M20,-8C20,-8 170,-8 170,-8 176,-8 182,-14 182,-20 182,-20 182,-446 182,-446 182,-452 176,-458 170,-458 170,-458 20,-458 20,-458 14,-458 8,-452 8,-446 8,-446 8,-20 8,-20 8,-14 14,-8 20,-8"/>
<text text-anchor="middle" x="95" y="-445.2" font-family="Times New Roman,serif" font-size="11.00" fill="gray">Global</text>
</g>
<!-- \\validacionFormularios -->
<g id="node1" class="node"><title>\\validacionFormularios</title>
<polygon fill="none" stroke="black" points="174,-430 16,-430 16,-394 174,-394 174,-430"/>
<text text-anchor="middle" x="95" y="-409.2" font-family="Courier,monospace" font-size="11.00">validacionFormularios</text>
</g>
<!-- \\BDPDO -->
<g id="node2" class="node"><title>\\BDPDO</title>
<polygon fill="none" stroke="black" points="122,-376 68,-376 68,-340 122,-340 122,-376"/>
<text text-anchor="middle" x="95" y="-355.2" font-family="Courier,monospace" font-size="11.00">BDPDO</text>
</g>
<!-- \\Departamento -->
<g id="node3" class="node"><title>\\Departamento</title>
<polygon fill="none" stroke="black" points="144,-322 46,-322 46,-286 144,-286 144,-322"/>
<text text-anchor="middle" x="95" y="-301.2" font-family="Courier,monospace" font-size="11.00">Departamento</text>
</g>
<!-- \\DepartamentoPDO -->
<g id="node4" class="node"><title>\\DepartamentoPDO</title>
<polygon fill="none" stroke="black" points="154,-268 36,-268 36,-232 154,-232 154,-268"/>
<text text-anchor="middle" x="95" y="-247.2" font-family="Courier,monospace" font-size="11.00">DepartamentoPDO</text>
</g>
<!-- \\Pokemon -->
<g id="node5" class="node"><title>\\Pokemon</title>
<polygon fill="none" stroke="black" points="127,-214 63,-214 63,-178 127,-178 127,-214"/>
<text text-anchor="middle" x="95" y="-193.2" font-family="Courier,monospace" font-size="11.00">Pokemon</text>
</g>
<!-- \\REST -->
<g id="node6" class="node"><title>\\REST</title>
<polygon fill="none" stroke="black" points="122,-160 68,-160 68,-124 122,-124 122,-160"/>
<text text-anchor="middle" x="95" y="-139.2" font-family="Courier,monospace" font-size="11.00">REST</text>
</g>
<!-- \\Usuario -->
<g id="node7" class="node"><title>\\Usuario</title>
<polygon fill="none" stroke="black" points="127,-106 63,-106 63,-70 127,-70 127,-106"/>
<text text-anchor="middle" x="95" y="-85.2" font-family="Courier,monospace" font-size="11.00">Usuario</text>
</g>
<!-- \\UsuarioPDO -->
<g id="node8" class="node"><title>\\UsuarioPDO</title>
<polygon fill="none" stroke="black" points="137,-52 53,-52 53,-16 137,-16 137,-52"/>
<text text-anchor="middle" x="95" y="-31.2" font-family="Courier,monospace" font-size="11.00">UsuarioPDO</text>
</g>
</g>
</svg>
